<svg id="Layer_1" data-name="Layer 1" xmlns="http://www.w3.org/2000/svg" viewBox="0 0 318.74 66.03"><defs><style>.cls-1{fill:#1a47b0;}.cls-2{fill:#f91c3d;}</style></defs><title>logo_vector</title><path class="cls-1" d="M390.68,382.12h4.9l.5,4h.22c3.17-2.66,7.05-4.9,11.16-4.9,9,0,13.82,7,13.82,17.86,0,11.88-7.13,18.87-15.12,18.87-3.24,0-6.48-1.51-9.72-4l.14,6.12v11.81h-5.9Zm24.48,17c0-7.7-2.59-12.89-9.21-12.89-3,0-5.91,1.66-9.37,4.76v18.36c3.17,2.66,6.27,3.67,8.57,3.67C410.91,413,415.16,407.75,415.16,399.11Z" transform="translate(-390.68 -365.85)"/><path class="cls-1" d="M430.64,410.06V365.85h5.9v44.64c0,1.87.8,2.59,1.66,2.59a5.13,5.13,0,0,0,1.3-.14l.79,4.46a7.94,7.94,0,0,1-3.39.58C432.44,418,430.64,415.17,430.64,410.06Z" transform="translate(-390.68 -365.85)"/><path class="cls-1" d="M446.84,408c0-7.63,6.55-11.45,21.46-13.1,0-4.47-1.44-8.79-7.2-8.79-4,0-7.71,1.87-10.44,3.75l-2.31-4.11c3.24-2.09,8.14-4.54,13.75-4.54,8.57,0,12.17,5.69,12.17,14.41v21.45h-4.89l-.51-4.17h-.21c-3.32,2.73-7.2,5-11.6,5C451.23,418,446.84,414.31,446.84,408Zm21.46.5v-9.72c-11.67,1.44-15.7,4.32-15.7,8.79,0,4,2.74,5.62,6.19,5.62S464.91,411.57,468.3,408.54Z" transform="translate(-390.68 -365.85)"/><path class="cls-1" d="M482.7,399.69c0-11.74,7.84-18.44,16.84-18.44a14.55,14.55,0,0,1,10.23,4.11l-3,3.89c-2-1.8-4.18-3.1-7-3.1-6.34,0-10.94,5.47-10.94,13.54s4.39,13.39,10.8,13.39a12.41,12.41,0,0,0,8.21-3.53l2.59,4A17.08,17.08,0,0,1,499.11,418C489.82,418,482.7,411.28,482.7,399.69Z" transform="translate(-390.68 -365.85)"/><path class="cls-1" d="M514,399.69c0-11.45,7.7-18.44,15.69-18.44,8.93,0,14,6.41,14,16.42a23.63,23.63,0,0,1-.21,3.39H519.85c.43,7.41,5,12.17,11.66,12.17a15.84,15.84,0,0,0,8.72-2.74l2.08,3.89a20.86,20.86,0,0,1-11.52,3.6C521.43,418,514,411.14,514,399.69Zm24.48-2.88c0-7.06-3.17-10.87-8.64-10.87-4.9,0-9.36,4-10.08,10.87Z" transform="translate(-390.68 -365.85)"/><path class="cls-1" d="M552.32,382.12h4.89l.51,6.34h.21c2.38-4.4,6-7.21,9.94-7.21a8.81,8.81,0,0,1,3.75.72l-1.16,5.19a9.76,9.76,0,0,0-3.38-.58c-3,0-6.48,2.16-8.86,8.07v22.46h-5.9Z" transform="translate(-390.68 -365.85)"/><path class="cls-1" d="M587.52,382.12h6.05l5.19,20.23c.79,3.31,1.44,6.48,2.09,9.72h.28c.8-3.24,1.52-6.48,2.38-9.72l5.4-20.23h5.76l5.47,20.23c.87,3.31,1.66,6.48,2.45,9.72h.29c.79-3.24,1.44-6.41,2.16-9.72l5.11-20.23h5.62l-9.36,35h-7.2l-5-18.79c-.87-3.31-1.52-6.55-2.38-10.08h-.29c-.79,3.53-1.51,6.84-2.45,10.15l-4.89,18.72h-6.91Z" transform="translate(-390.68 -365.85)"/><path class="cls-1" d="M640.52,399.69c0-11.45,7.7-18.44,15.69-18.44,8.93,0,14,6.41,14,16.42a23.63,23.63,0,0,1-.21,3.39H646.35c.43,7.41,5,12.17,11.66,12.17a15.81,15.81,0,0,0,8.72-2.74l2.08,3.89a20.84,20.84,0,0,1-11.52,3.6C647.93,418,640.52,411.14,640.52,399.69ZM665,396.81c0-7.06-3.17-10.87-8.64-10.87-4.9,0-9.36,4-10.08,10.87Z" transform="translate(-390.68 -365.85)"/><path class="cls-1" d="M684.29,413.51h-.21l-.51,3.6h-4.75V365.85h5.9v14l-.14,6.34c3.17-2.81,7.06-4.9,10.94-4.9,9.08,0,13.9,7,13.9,17.79,0,11.95-7.13,18.94-15.12,18.94C691.06,418,687.39,416.32,684.29,413.51Zm19-14.4c0-7.7-2.59-12.89-9.22-12.89-3,0-6,1.66-9.36,4.76v18.36a13.74,13.74,0,0,0,8.57,3.67C699.05,413,703.3,407.75,703.3,399.11Z" transform="translate(-390.68 -365.85)"/><rect class="cls-2" x="178.32" y="28.15" width="15" height="15" rx="7.5"/></svg>